# xmcd
#
# Track frame offsets:
#	150
#	9883
#	31571
#	45434
#	62101
#	78094
#	96704
#	112627
#	129938
#	145517
#	160441
#	176267
#
# Disc length: 2645 seconds
#
# Revision: 0
# Processed by: cddbd v1.5.1PL0 Copyright (c) Steve Scherf et al.
# Submitted via: audiograbber 1.83.01
#
DISCID=7f0a530c
DTITLE=Wariner, Steve - Burnin' The Roadhouse Down - Wariner, Steve - Burnin' T
DTITLE=he Roadhouse Down
DYEAR=1998
DGENRE=Country
TTITLE0=Burnin' The Roadhouse Down
TTITLE1=Holes In The Floor Of Heaven
TTITLE2=Every Little Whisper
TTITLE3=A Six Pack Ago
TTITLE4=Road Trippin'
TTITLE5=Love Me Like You Love Me
TTITLE6=Smoke From An Old Flame
TTITLE7=I Don't Know How To Fix It
TTITLE8=Big Ol' Empty House
TTITLE9=Closer I Get To You
TTITLE10=Big Tops
TTITLE11=What If I Said
EXTD=
EXTT0=
EXTT1=
EXTT2=
EXTT3=
EXTT4=
EXTT5=
EXTT6=
EXTT7=
EXTT8=
EXTT9=
EXTT10=
EXTT11=
PLAYORDER=
